<svg width="149" height="34" viewBox="0 0 149 34" fill="none" xmlns="http://www.w3.org/2000/svg"><path d="M13.92 24.46c0 2.56-1.28 4.4-3.96 4.4-2.69 0-3.92-1.84-3.96-4.4H.94c0 5.55 3.74 8.85 9.02 8.85 5.28 0 9.02-3.3 9.02-8.85V2.42h-5.06v22.04Zm11.54-3.7c0 7.49 5.06 12.64 11.36 12.64 4.04 0 6.95-1.94 8.49-4V33h5.06V8.76H45.3v3.52a10.32 10.32 0 0 0-8.4-3.92c-6.39 0-11.45 4.93-11.45 12.4Zm19.85.1c0 5.23-3.57 8.18-7.35 8.18-3.74 0-7.35-3.04-7.35-8.27 0-5.24 3.61-8.05 7.35-8.05 3.78 0 7.35 2.94 7.35 8.14Zm9.97-.1c0 7.49 5.06 12.64 11.44 12.64 3.96 0 6.87-1.85 8.4-4.05V33h5.07V.44h-5.06v11.7c-1.85-2.28-5.2-3.78-8.36-3.78-6.43 0-11.49 4.93-11.49 12.4Zm19.85.1c0 5.23-3.57 8.18-7.35 8.18-3.74 0-7.35-3.04-7.35-8.27 0-5.24 3.61-8.05 7.35-8.05 3.78 0 7.35 2.94 7.35 8.14Zm34.75 0c0-7.62-5.46-12.5-12.37-12.5-6.9 0-12.36 4.88-12.36 12.5 0 7.6 5.23 12.54 12.14 12.54 6.95 0 12.59-4.93 12.59-12.54Zm-19.63 0c0-5.5 3.4-8.14 7.17-8.14 3.75 0 7.3 2.64 7.3 8.14s-3.69 8.18-7.43 8.18c-3.78 0-7.04-2.68-7.04-8.18Zm47.69 0c0-7.62-5.46-12.5-12.37-12.5-6.9 0-12.36 4.88-12.36 12.5 0 7.6 5.23 12.54 12.14 12.54 6.95 0 12.59-4.93 12.59-12.54Zm-19.63 0c0-5.5 3.39-8.14 7.17-8.14 3.74 0 7.3 2.64 7.3 8.14s-3.69 8.18-7.43 8.18c-3.78 0-7.04-2.68-7.04-8.18Zm29.78 9.24c0-1.8-1.41-3.22-3.17-3.22a3.18 3.18 0 0 0-3.21 3.22c0 1.8 1.4 3.2 3.2 3.2 1.77 0 3.18-1.4 3.18-3.2Z" fill="#181E4B"/></svg>