<svg width="115" height="34" viewBox="0 0 115 34" fill="none" xmlns="http://www.w3.org/2000/svg"><path d="m74.08 28.3 9.5 3 8-8 10 7 10.5-2-4.5-14.5-16 5-9-5-9.5 1.5 1 13Z" fill="#F1A501"/><path d="M0 23.37V21.2l6.12-1.1v2.98c.03 1.63.44 2.85 1.24 3.68.83.8 1.92 1.2 3.27 1.2 1.31 0 2.36-.43 3.12-1.29.8-.86 1.2-2 1.2-3.45V.69h6.35v22.54c0 3-1 5.55-3 7.64a10.1 10.1 0 0 1-7.63 3.12c-3.22 0-5.8-.96-7.77-2.9C.97 29.14 0 26.57 0 23.38Z" fill="black"/><path d="M22.76 27.14c0-1.93.63-3.48 1.88-4.65a8.98 8.98 0 0 1 4.88-2.2l5.56-.83c1.14-.16 1.7-.7 1.7-1.61 0-.86-.33-1.57-1-2.12a4.23 4.23 0 0 0-2.81-.83c-1.29 0-2.32.36-3.08 1.06a4 4 0 0 0-1.25 2.62l-5.42-1.15a7.96 7.96 0 0 1 2.9-5.2c1.71-1.5 3.98-2.25 6.8-2.25 3.38 0 5.86.81 7.45 2.44a8.34 8.34 0 0 1 2.4 6.16v11.14c0 1.35.09 2.54.27 3.58h-5.6a12.2 12.2 0 0 1-.24-2.71c-1.44 2.24-3.66 3.36-6.67 3.36a7.94 7.94 0 0 1-5.66-2.03 6.4 6.4 0 0 1-2.11-4.78Zm9.06 2.25a5.2 5.2 0 0 0 3.54-1.2c.95-.82 1.43-2.17 1.43-4.04v-1.01l-5.1.78c-1.88.28-2.82 1.23-2.82 2.85 0 .74.27 1.37.79 1.89.52.49 1.24.73 2.16.73Z" fill="black"/><path d="M66.74 0v29.21c0 1.5.06 2.87.18 4.1h-5.84c-.15-.77-.23-1.65-.23-2.63a5.68 5.68 0 0 1-2.48 2.3c-1.1.58-2.4.88-3.87.88a10.4 10.4 0 0 1-7.96-3.36c-2.05-2.27-3.08-5.12-3.08-8.56 0-3.34 1.01-6.15 3.04-8.42a10.09 10.09 0 0 1 7.82-3.4c3.25 0 5.38.94 6.4 2.8V0h6.02ZM49.63 21.94c0 2 .52 3.57 1.56 4.74a5.25 5.25 0 0 0 4.05 1.7c1.62 0 2.96-.58 4-1.75 1.04-1.16 1.56-2.74 1.56-4.73 0-1.97-.52-3.5-1.56-4.6a5.2 5.2 0 0 0-4-1.7 5.3 5.3 0 0 0-4.05 1.7c-1.04 1.13-1.56 2.68-1.56 4.64Z" fill="black"/><path d="M75.77 26.73a5.58 5.58 0 0 0 4.1 1.7c1.59 0 2.93-.57 4.04-1.7 1.13-1.14 1.7-2.72 1.7-4.74 0-2.03-.57-3.6-1.7-4.74a5.43 5.43 0 0 0-4.05-1.7c-1.6 0-2.96.57-4.1 1.7-1.1 1.13-1.65 2.71-1.65 4.74 0 2.02.55 3.6 1.66 4.74Zm-4.42-13.34c2.27-2.27 5.1-3.4 8.51-3.4a11.66 11.66 0 0 1 11.87 12 11.66 11.66 0 0 1-11.87 12 11.5 11.5 0 0 1-8.5-3.4 11.74 11.74 0 0 1-3.37-8.6c0-3.47 1.12-6.33 3.36-8.6Z" fill="black"/><path d="M98.95 26.73a5.58 5.58 0 0 0 4.1 1.7c1.59 0 2.94-.57 4.04-1.7 1.14-1.14 1.7-2.72 1.7-4.74 0-2.03-.56-3.6-1.7-4.74a5.43 5.43 0 0 0-4.05-1.7c-1.6 0-2.96.57-4.09 1.7-1.1 1.13-1.66 2.71-1.66 4.74 0 2.02.56 3.6 1.66 4.74Zm-4.42-13.34a11.55 11.55 0 0 1 8.51-3.4 11.66 11.66 0 0 1 11.87 12 11.66 11.66 0 0 1-11.87 12 11.5 11.5 0 0 1-8.5-3.4 11.74 11.74 0 0 1-3.36-8.6c0-3.47 1.12-6.33 3.35-8.6Z" fill="black"/></svg>