<svg width="16" height="16" viewBox="0 0 16 16" fill="none" xmlns="http://www.w3.org/2000/svg"><path d="M.27 15.47h1.6v-8.8c0-.15.12-.27.26-.27h3.74V.27c0-.15.12-.27.26-.27h6.94c.14 0 .26.12.26.27v15.2h2.4a.27.27 0 1 1 0 .53H.27a.27.27 0 0 1 0-.53Zm10.13 0h1.07v-2.4a.27.27 0 0 0-.27-.27h-.53a.27.27 0 0 0-.27.27v2.4Zm-1.07-8.8v8.8h.54v-2.4c0-.45.35-.8.8-.8h.53c.44 0 .8.35.8.8v2.4h.8V.53H6.4V6.4h2.67c.14 0 .26.12.26.27Zm-6.93 8.8h6.4V6.93H2.4v8.54Z" fill="#84829A"/><path d="M7.47 3.73h1.6c.14 0 .26.12.26.27v1.6c0 .15-.12.27-.26.27h-1.6a.27.27 0 0 1-.27-.27V4c0-.15.12-.27.27-.27Zm.26 1.6H8.8V4.27H7.73v1.06Z" fill="#84829A"/><path d="M7.47 1.07h1.6c.14 0 .26.12.26.26v1.6c0 .15-.12.27-.26.27h-1.6a.27.27 0 0 1-.27-.27v-1.6c0-.14.12-.26.27-.26Zm.26 1.6H8.8V1.6H7.73v1.07Z" fill="#84829A"/><path d="M10.13 3.73h1.6c.15 0 .27.12.27.27v1.6c0 .15-.12.27-.27.27h-1.6a.27.27 0 0 1-.26-.27V4c0-.15.12-.27.26-.27Zm.27 1.6h1.07V4.27H10.4v1.06Z" fill="#84829A"/><path d="M10.13 1.07h1.6c.15 0 .27.12.27.26v1.6c0 .15-.12.27-.27.27h-1.6a.27.27 0 0 1-.26-.27v-1.6c0-.14.12-.26.26-.26Zm.27 1.6h1.07V1.6H10.4v1.07Z" fill="#84829A"/><path d="M10.13 6.4h1.6c.15 0 .27.12.27.27v1.6c0 .14-.12.26-.27.26h-1.6a.27.27 0 0 1-.26-.26v-1.6c0-.15.12-.27.26-.27ZM10.4 8h1.07V6.93H10.4V8Z" fill="#84829A"/><path d="M10.13 9.07h1.6c.15 0 .27.12.27.26v1.6c0 .15-.12.27-.27.27h-1.6a.27.27 0 0 1-.26-.27v-1.6c0-.14.12-.26.26-.26Zm.27 1.6h1.07V9.6H10.4v1.07Z" fill="#84829A"/><path d="M5.07 12.27h-1.6A.27.27 0 0 1 3.2 12v-1.6c0-.15.12-.27.27-.27h1.6c.14 0 .26.12.26.27V12c0 .15-.12.27-.26.27Zm-.27-1.6H3.73v1.06H4.8v-1.06Z" fill="#84829A"/><path d="M5.07 9.6h-1.6a.27.27 0 0 1-.27-.27v-1.6c0-.14.12-.26.27-.26h1.6c.14 0 .26.12.26.26v1.6c0 .15-.12.27-.26.27ZM4.8 8H3.73v1.07H4.8V8Z" fill="#84829A"/><path d="M5.07 14.93h-1.6a.27.27 0 0 1-.27-.26v-1.6c0-.15.12-.27.27-.27h1.6c.14 0 .26.12.26.27v1.6c0 .14-.12.26-.26.26Zm-.27-1.6H3.73v1.07H4.8v-1.07Z" fill="#84829A"/><path d="M7.73 12.27h-1.6a.27.27 0 0 1-.26-.27v-1.6c0-.15.12-.27.26-.27h1.6c.15 0 .27.12.27.27V12c0 .15-.12.27-.27.27Zm-.26-1.6H6.4v1.06h1.07v-1.06Z" fill="#84829A"/><path d="M7.73 9.6h-1.6a.27.27 0 0 1-.26-.27v-1.6c0-.14.12-.26.26-.26h1.6c.15 0 .27.12.27.26v1.6c0 .15-.12.27-.27.27ZM7.47 8H6.4v1.07h1.07V8Z" fill="#84829A"/><path d="M7.73 14.93h-1.6a.27.27 0 0 1-.26-.26v-1.6c0-.15.12-.27.26-.27h1.6c.15 0 .27.12.27.27v1.6c0 .14-.12.26-.27.26Zm-.26-1.6H6.4v1.07h1.07v-1.07Z" fill="#84829A"/></svg>