<svg width="153" height="166" viewBox="0 0 153 166" fill="none" xmlns="http://www.w3.org/2000/svg"><path d="M11.56 152.61v1.87H.84v-1.87h10.72Zm-4.36-4.57v11.4h-2v-11.4h2Z" fill="#E5E5E5"/><path d="M46.56 117.61v1.87H35.84v-1.87h10.72Zm-4.36-4.56v11.38h-2v-11.39h1.99Z" fill="#E5E5E5"/><path d="M77.2 12.61h4.36v1.88H77.2v4.94h-2V14.5h-4.36v-1.88h4.36V8.04h2v4.57Z" fill="#E5E5E5"/><path d="M81.56 47.61v1.87H70.84v-1.87h10.72Zm-4.36-4.57v11.4h-2v-11.4h1.99Z" fill="#E5E5E5"/><path d="M81.56 82.61v1.87H70.84v-1.87h10.72Zm-4.36-4.57v11.4h-2v-11.4h1.99Z" fill="#6246E5"/><path d="M81.56 117.61v1.87H70.84v-1.87h10.72Zm-4.36-4.56v11.38h-2v-11.39h1.99Z" fill="#E5E5E5"/><path d="M81.56 152.61v1.87H70.84v-1.87h10.72Zm-4.36-4.57v11.4h-2v-11.4h1.99Z" fill="#E5E5E5"/><path d="M116.56 12.61v1.87h-10.72v-1.87h10.72Zm-4.36-4.57v11.4h-1.99V8.03h1.99Z" fill="#E5E5E5"/><path d="M116.56 47.61v1.87h-10.72v-1.87h10.72Zm-4.36-4.57v11.4h-1.99v-11.4h1.99Z" fill="#E5E5E5"/><path d="M116.56 82.61v1.87h-10.72v-1.87h10.72Zm-4.36-4.57v11.4h-1.99v-11.4h1.99Z" fill="#E5E5E5"/><path d="M116.56 117.61v1.87h-10.72v-1.87h10.72Zm-4.36-4.56v11.38h-1.99v-11.39h1.99Z" fill="#E5E5E5"/><path d="M116.56 152.61v1.87h-10.72v-1.87h10.72Zm-4.36-4.57v11.4h-1.99v-11.4h1.99Z" fill="#E5E5E5"/><path d="M147.2 12.61h4.36v1.88h-4.36v4.94h-2V14.5h-4.36v-1.88h4.36V8.04h2v4.57Z" fill="#FF7152"/><path d="M147.2 47.61h4.36v1.88h-4.36v4.94h-2V49.5h-4.36v-1.88h4.36v-4.57h2v4.57Z" fill="#E5E5E5"/><path d="M151.56 82.61v1.87h-10.72v-1.87h10.72Zm-4.36-4.57v11.4h-1.99v-11.4h1.99Z" fill="#E5E5E5"/><path d="M151.56 117.61v1.87h-10.72v-1.87h10.72Zm-4.36-4.56v11.38h-1.99v-11.39h1.99Z" fill="#E5E5E5"/><path d="M151.56 152.61v1.87h-10.72v-1.87h10.72Zm-4.36-4.57v11.4h-1.99v-11.4h1.99Z" fill="#E5E5E5"/></svg>