<svg width="14" height="14" viewBox="0 0 14 14" fill="none" xmlns="http://www.w3.org/2000/svg"><g clip-path="url(#clip0_1_199)"><path d="M13.65.15c-.36-.1-9.39-1-12.56 3.28-1.4 1.9-1.42 4.5-.07 7.72a18 18 0 0 0-.89 2.26.46.46 0 1 0 .88.27C3.42 5.87 11.27 2.09 13.68 1.14c.23-.1.54-.82-.03-.99Z" fill="#84829A"/><path d="M2.47 12.13c1.3.55 2.61.83 3.83.83 1.1 0 2.1-.23 2.99-.68 1.76-.92 2.84-2.67 3.12-5.07.28-2.44.63-3.98.92-4.91-2.6 1.2-8.16 4.3-10.86 9.83Z" fill="#84829A"/></g><defs><clipPath id="clip0_1_199"><rect width="14" height="14" fill="white"/></clipPath></defs></svg>