<svg width="14" height="14" viewBox="0 0 14 14" fill="none" xmlns="http://www.w3.org/2000/svg"><g clip-path="url(#clip0_1_213)"><path d="M13.5 0a.5.5 0 0 0-.22.05l-3.8 1.9L5.2.05 5.18.03A.5.5 0 0 0 5.06 0h-.12a.52.52 0 0 0-.12.03H4.8l-4.5 2a.5.5 0 0 0-.3.46v11a.5.5 0 0 0 .7.46l4.3-1.9 4.3 1.9.02.01c.12.06.26.05.38 0l.02-.01 4-2a.5.5 0 0 0 .28-.45V.5a.5.5 0 0 0-.5-.5Zm-9 11.18L1 12.73v-9.9l3.5-1.56v9.9ZM9 12.73l-3.5-1.55V1.27L9 2.83v9.9Zm4-1.54-3 1.5V2.81l3-1.5v9.88Z" fill="#84829A"/></g><defs><clipPath id="clip0_1_213"><rect width="14" height="14" fill="white"/></clipPath></defs></svg>