<svg width="20" height="21" viewBox="0 0 20 21" fill="none" xmlns="http://www.w3.org/2000/svg">
<path d="M17.8037 3.00515L11.258 17.9132C11.2032 18.0381 11.1103 18.1405 10.9939 18.2044C10.8774 18.2684 10.7439 18.2902 10.6143 18.2665C10.4847 18.2428 10.3663 18.175 10.2776 18.0736C10.1888 17.9722 10.1348 17.8429 10.1239 17.7061L9.57048 10.7759L2.93154 10.1982C2.80042 10.1868 2.67661 10.1304 2.57947 10.0378C2.48232 9.94512 2.41733 9.8215 2.39465 9.68621C2.37197 9.55092 2.39288 9.4116 2.45412 9.29003C2.51535 9.16847 2.61346 9.07152 2.73309 9.01435L17.0146 2.18148C17.125 2.12866 17.2483 2.11237 17.3678 2.1348C17.4873 2.15722 17.5974 2.21729 17.6833 2.30694C17.7692 2.39658 17.8267 2.51151 17.8482 2.63628C17.8697 2.76106 17.8541 2.88971 17.8035 3.00496L17.8037 3.00515Z" fill="#080809"/>
</svg>
