<svg width="167" height="154" viewBox="0 0 167 154" fill="none" xmlns="http://www.w3.org/2000/svg"><path d="M96.17 86.85c-1.35.3-2.68.87-3.88 1.65-3.14 2-4.97 4.86-4.08 6.38.88 1.52 4.15 1.14 7.29-.87 1.22-.76 2.3-1.73 3.19-2.85.4-.54.48-1.22.19-1.72l-1.16-1.98c-.29-.5-.9-.75-1.55-.61Z" fill="#D5D6DB"/><path d="M88.29 59.85c-.99.22-1.95.63-2.82 1.2-2.28 1.46-3.6 3.53-2.96 4.63.64 1.1 3.01.82 5.29-.63a8.99 8.99 0 0 0 2.3-2.07c.3-.4.36-.88.14-1.25l-.83-1.43c-.21-.37-.65-.54-1.12-.45Z" fill="#D5D6DB"/><path d="M75.47 60.98c-.22-.02-.45.04-.65.17l-5.35 3.4c-.45.29-.63.84-.4 1.23a.7.7 0 0 0 .2.22l13.2 9.09 17.82-11.37-24.82-2.74Z" fill="#029BC5"/><path d="M131.85 59.7 83.32 90.25 54.6 101.68l-14.65 2.9-1.6-2.73 80.89-49.95a18 18 0 0 1 7.78-2.66 14.2 14.2 0 0 1 3.46.12c1 .15 1.94.44 2.8.86.97.48 2.8.54 3.4 1.5 0-.01 1.4 4.36-4.84 7.98Z" fill="#E1E6E9"/><path d="m83.96 86.21-21 33.47c-.26.47-.1 1 .35 1.17.28.12.62.07.9-.11l5.35-3.39a10.48 10.48 0 0 0 2.68-2.43l40.71-47.87L83.96 86.2Z" fill="#029BC5"/><path d="M30.98 85.1a1.32 1.32 0 0 0-1.12.16l-4.41 2.81c-.6.38-.85 1.12-.54 1.65.06.1.13.18.22.26l12.38 9.91 13.01-8.13-19.54-6.67Z" fill="#029BC5"/><path d="M41.66 101.68 35 111c-.1.13-.08.3.05.37.09.06.21.05.31-.02l4.13-2.62a.38.38 0 0 0 .09-.07l9.73-11.84-7.65 4.85Z" fill="#029BC5"/><path d="M129.7 49.76a14.5 14.5 0 0 0-3.57-.12 12.1 12.1 0 0 0-2.19 5.38c-.02.38.29.65.68.6a.83.83 0 0 0 .35-.12l7.61-4.84a9.88 9.88 0 0 0-2.88-.9Z" fill="#029BC5"/><path d="m113.12 58.67 4.96-3.14 4.63 7.87-4.97 3.14-4.62-7.87Z" fill="#D5D6DB"/><path d="M110 61.78c-.6.38-.85 1.11-.54 1.63l.49.84c.32.51 1.06.6 1.65.2.56-.38.79-1.06.52-1.57l-.5-.84c-.3-.52-1.03-.64-1.63-.26Z" fill="#3A556A"/><path d="M105.53 64.56c-.6.38-.84 1.1-.54 1.62l.5.85c.32.5 1.06.6 1.65.2.56-.38.78-1.07.51-1.58l-.49-.84c-.3-.52-1.03-.63-1.63-.25Z" fill="#3A556A"/><path d="M101.06 67.33c-.6.38-.84 1.1-.53 1.63l.5.84c.31.5 1.05.6 1.64.2.56-.38.79-1.07.52-1.57l-.5-.85c-.3-.52-1.03-.63-1.63-.25Z" fill="#3A556A"/><path d="M96.6 70.1c-.6.38-.84 1.1-.54 1.63l.5.84c.32.5 1.06.6 1.65.2.56-.38.78-1.07.51-1.57l-.49-.84c-.3-.52-1.03-.64-1.63-.26Z" fill="#3A556A"/><path d="M92.13 72.87c-.6.38-.83 1.11-.53 1.63l.5.84c.3.52 1.03.64 1.63.26.6-.38.83-1.1.53-1.63l-.5-.84c-.3-.52-1.03-.63-1.63-.26Z" fill="#3A556A"/><path d="M87.67 75.65c-.6.38-.84 1.1-.53 1.62l.49.85c.3.52 1.03.63 1.63.25.6-.38.84-1.1.54-1.63l-.5-.84c-.3-.52-1.03-.63-1.63-.25Z" fill="#3A556A"/><path d="M83.2 78.42c-.6.38-.83 1.1-.53 1.63l.5.84c.3.52 1.03.63 1.63.25.6-.38.83-1.1.53-1.62l-.5-.85c-.3-.52-1.03-.63-1.63-.25Z" fill="#3A556A"/><path d="M78.74 81.2c-.6.37-.84 1.1-.53 1.62l.49.84c.3.52 1.04.63 1.63.25.6-.38.84-1.1.54-1.62l-.5-.84c-.3-.52-1.03-.64-1.63-.26Z" fill="#3A556A"/><path d="M74.28 83.96c-.6.38-.84 1.11-.54 1.63l.5.84c.3.52 1.03.64 1.63.26.6-.38.83-1.11.53-1.63l-.5-.84c-.3-.52-1.03-.63-1.62-.26Z" fill="#3A556A"/><path d="M69.81 86.74c-.6.38-.84 1.1-.53 1.62l.49.85c.3.52 1.04.63 1.63.25.6-.38.84-1.1.54-1.63l-.5-.84c-.3-.52-1.03-.63-1.63-.25Z" fill="#3A556A"/><path d="M65.35 89.5c-.6.39-.84 1.12-.54 1.64l.5.84c.3.52 1.03.63 1.63.25.6-.38.84-1.1.53-1.62l-.49-.85c-.3-.52-1.03-.63-1.63-.25Z" fill="#3A556A"/></svg>