<svg width="480" height="361" viewBox="0 0 480 361" fill="none" xmlns="http://www.w3.org/2000/svg"><g opacity=".1"><mask id="mask0_1_470" style="mask-type:alpha" maskUnits="userSpaceOnUse" x="0" y="0" width="480" height="361"><rect x="479.5" y=".5" width="360" height="479" transform="rotate(90 479.5 .5)" fill="url(#paint0_linear_1_470)" stroke="#6246E5"/></mask><g mask="url(#mask0_1_470)"><path d="M236.5 453.92c-69.33 0-125.53-56.29-125.53-125.72s56.2-125.72 125.53-125.72c69.34 0 125.55 56.29 125.55 125.72 0 69.44-56.21 125.72-125.55 125.72Z" stroke="#6246E5"/><path d="M249.77 458.9c-77.57 0-140.46-62.97-140.46-140.66s62.89-140.67 140.46-140.67c77.58 0 140.47 62.98 140.47 140.67S327.34 458.9 249.77 458.9Z" stroke="#6246E5"/><path d="M260.55 463.88c-84.9 0-153.73-68.92-153.73-153.95 0-85.02 68.83-153.95 153.73-153.95 84.9 0 153.74 68.93 153.74 153.95 0 85.03-68.83 153.95-153.74 153.95Z" stroke="#6246E5"/><path d="M276.3 467.2c-91.3 0-165.33-74.12-165.33-165.57 0-91.45 74.02-165.58 165.34-165.58 91.31 0 165.34 74.13 165.34 165.58 0 91.45-74.03 165.58-165.34 165.58Z" stroke="#6246E5"/><path d="M291.65 470.53c-97.5 0-176.54-79.15-176.54-176.79 0-97.64 79.04-176.79 176.54-176.79 97.5 0 176.53 79.15 176.53 176.8 0 97.63-79.04 176.78-176.53 176.78Z" stroke="#6246E5"/><path d="M309.06 474.68c-107.11 0-193.95-86.96-193.95-194.22 0-107.27 86.84-194.23 193.95-194.23 107.12 0 193.95 86.96 193.95 194.23 0 107.26-86.83 194.22-193.95 194.22Z" stroke="#6246E5"/></g></g><defs><linearGradient id="paint0_linear_1_470" x1="736.03" y1="13.47" x2="487.7" y2="484.07" gradientUnits="userSpaceOnUse"><stop stop-color="#747DEF"/><stop offset="1" stop-color="#5E3BE1"/></linearGradient></defs></svg>