<svg width="120" height="100" viewBox="0 0 120 100" fill="none" xmlns="http://www.w3.org/2000/svg"><mask id="mask0_1_395" style="mask-type:alpha" maskUnits="userSpaceOnUse" x="0" y="0" width="120" height="100"><rect width="120" height="100" fill="#D9D9D9"/></mask><g mask="url(#mask0_1_395)"><path d="M59 70a18 18 0 0 0 18 18h27a5 5 0 0 0 5-5V49a10 10 0 0 0-10-10H64a5 5 0 0 0-5 5v26Z" fill="#FFF1DA"/><path d="M82 49.85v-5.7c0-1.11-.9-2.02-2.02-2.02H77.8c-.87 0-1.64-.56-1.92-1.39-.3-.92-.67-1.8-1.1-2.66a2 2 0 0 1 .37-2.34l1.54-1.54a2 2 0 0 0 0-2.86l-4.03-4.03a2.02 2.02 0 0 0-2.86 0l-1.54 1.54a2 2 0 0 1-2.34.37c-.85-.43-1.74-.8-2.66-1.1a2.02 2.02 0 0 1-1.39-1.92v-2.18c0-1.11-.9-2.02-2.02-2.02h-5.7c-1.12 0-2.02.9-2.02 2.02v2.18c0 .87-.56 1.64-1.39 1.92-.92.3-1.8.67-2.66 1.1a2 2 0 0 1-2.34-.37l-1.54-1.54a2.02 2.02 0 0 0-2.86 0l-4.03 4.03a2.02 2.02 0 0 0 0 2.86l1.54 1.54a2 2 0 0 1 .37 2.34c-.43.85-.8 1.74-1.1 2.66-.2.59-.64 1.04-1.19 1.25-.23.1-.37.24-.63.24h-2.18c-1.11 0-2.02.9-2.02 2.02v5.5c0 1.11.9 2.02 2.02 2.02h2.18c.87 0 1.65.66 1.92 1.49.3.92.67 1.8 1.1 2.66a2 2 0 0 1-.37 2.34l-1.44 1.54a2.02 2.02 0 0 0 0 2.86l3.83 3.83c.79.79 2.07.79 2.86 0l1.54-1.54a2.02 2.02 0 0 1 2.34-.38c.85.43 1.94.9 2.87 1.21a2.02 2.02 0 0 1 1.38 1.92v2.18c0 1.11.9 2.02 2.02 2.02h5.4c1.11 0 2.02-.9 2.02-2.02V67.7c0-.26.15-.4.24-.63a2 2 0 0 1 1.25-1.19c.92-.3 1.8-.67 2.66-1.1a2 2 0 0 1 2.34.37l1.54 1.54a2 2 0 0 0 2.86 0l4.03-4.03a2 2 0 0 0 0-2.86l-1.54-1.54a2.02 2.02 0 0 1-.37-2.34c.43-.85.8-1.74 1.1-2.66a2.02 2.02 0 0 1 1.92-1.39h2.18c1.11 0 2.02-.9 2.02-2.02Z" fill="#B6C4CF"/><path d="M62 67.07a2.2 2.2 0 0 0-.13.73v2.18c0 1.11-.9 2.02-2.02 2.02h-5.7c-1.11 0-2.02-.9-2.02-2.02V67.8c0-.87-.56-1.65-1.39-1.92-.92-.3-1.8-.67-2.66-1.1a2.02 2.02 0 0 0-2.34.37l-1.54 1.54a2 2 0 0 1-2.86 0l-4.03-4.03a2.02 2.02 0 0 1 0-2.86l1.54-1.54a2 2 0 0 0 .37-2.34c-.43-.85-.8-1.74-1.1-2.66a2.02 2.02 0 0 0-1.92-1.39h-2.18c-1.11 0-2.02-.9-2.02-2.02v-5.7c0-1.11.9-2.02 2.02-2.02h2.18c.26 0 .5-.05.73-.14v.38A24.7 24.7 0 0 0 62 67.07Z" fill="#9FACBA"/><path d="M57 63.6a16.6 16.6 0 1 0 0-33.2 16.6 16.6 0 0 0 0 33.2Z" fill="#9FACBA"/><path d="M57 60.08a13.08 13.08 0 1 0 0-26.16 13.08 13.08 0 0 0 0 26.16Z" fill="#F8F7F7"/></g></svg>