<svg width="120" height="100" viewBox="0 0 120 100" fill="none" xmlns="http://www.w3.org/2000/svg"><mask id="mask0_1_331" style="mask-type:alpha" maskUnits="userSpaceOnUse" x="0" y="0" width="120" height="100"><rect width="120" height="100" fill="#D9D9D9"/></mask><g mask="url(#mask0_1_331)"><path d="M22.8 40a18 18 0 0 0 18 18h27a5 5 0 0 0 5-5V19a10 10 0 0 0-10-10h-35a5 5 0 0 0-5 5v26Z" fill="#FFF1DA"/><path d="M71.39 53.94c-1.36.3-2.68.87-3.89 1.66-3.14 2-4.97 4.85-4.08 6.38.89 1.52 4.15 1.13 7.3-.87 1.22-.76 2.3-1.73 3.18-2.85.41-.55.49-1.22.2-1.73l-1.16-1.97c-.3-.51-.9-.75-1.55-.62Z" fill="#D5D6DB"/><path d="M63.5 26.95c-.98.22-1.94.63-2.82 1.2-2.27 1.45-3.6 3.52-2.96 4.62.65 1.1 3.01.82 5.3-.63a8.99 8.99 0 0 0 2.3-2.07c.3-.39.35-.88.14-1.24l-.83-1.44a1.04 1.04 0 0 0-1.13-.44Z" fill="#D5D6DB"/><path d="M50.69 28.08a.99.99 0 0 0-.66.16l-5.35 3.41c-.44.28-.62.83-.4 1.22a.7.7 0 0 0 .21.23l13.19 9.08L75.5 30.82l-24.82-2.74Z" fill="#029BC5"/><path d="M107.06 26.8 58.53 57.34 29.82 68.77l-14.64 2.91-1.61-2.73L94.47 19a18 18 0 0 1 7.78-2.66c1.17-.1 2.34-.06 3.46.11 1 .16 1.94.45 2.8.87.96.48 2.8.53 3.4 1.48 0 0 1.4 4.38-4.84 8Z" fill="#E1E6E9"/><path d="m59.18 53.3-21 33.47c-.26.47-.1 1 .35 1.18a1 1 0 0 0 .9-.12l5.35-3.39a10.48 10.48 0 0 0 2.67-2.43l40.72-47.87-29 19.16Z" fill="#029BC5"/><path d="M6.2 52.19a1.32 1.32 0 0 0-1.12.16L.66 55.17c-.6.38-.84 1.12-.54 1.64.06.1.14.19.23.26l12.38 9.91 13-8.12L6.2 52.19Z" fill="#029BC5"/><path d="m16.87 68.77-6.66 9.33c-.1.13-.07.3.05.38.1.05.22.04.32-.03l4.13-2.61a.36.36 0 0 0 .08-.08l9.74-11.83-7.66 4.84Z" fill="#029BC5"/><path d="M104.91 16.86a14.49 14.49 0 0 0-3.56-.12 12.1 12.1 0 0 0-2.2 5.38c-.01.37.3.65.69.6a.83.83 0 0 0 .35-.12l7.6-4.85a9.89 9.89 0 0 0-2.88-.9Z" fill="#029BC5"/><path d="m88.33 25.77 4.97-3.14 4.63 7.87-4.97 3.13-4.63-7.86Z" fill="#D5D6DB"/><path d="M85.2 28.88c-.6.38-.83 1.1-.53 1.63l.5.84c.32.5 1.06.6 1.65.2.56-.38.78-1.07.51-1.58l-.49-.84c-.3-.52-1.03-.63-1.63-.25Z" fill="#3A556A"/><path d="M80.74 31.65c-.6.38-.84 1.1-.53 1.63l.5.84c.31.5 1.05.6 1.64.2.56-.38.79-1.07.52-1.57l-.5-.84c-.3-.52-1.03-.64-1.63-.26Z" fill="#3A556A"/><path d="M76.28 34.42c-.6.38-.84 1.11-.54 1.63l.5.84c.32.5 1.06.6 1.65.2.56-.38.78-1.06.51-1.57l-.49-.84c-.3-.52-1.03-.64-1.63-.26Z" fill="#3A556A"/><path d="M71.81 37.2c-.6.38-.83 1.1-.53 1.62l.5.84c.32.51 1.05.6 1.64.2.56-.37.79-1.06.52-1.57l-.5-.84c-.3-.52-1.03-.63-1.63-.25Z" fill="#3A556A"/><path d="M67.35 39.97c-.6.38-.84 1.1-.53 1.63l.49.84c.3.52 1.03.63 1.63.25.6-.38.84-1.1.53-1.62l-.49-.85c-.3-.52-1.03-.63-1.63-.25Z" fill="#3A556A"/><path d="M62.88 42.74c-.6.38-.83 1.1-.53 1.63l.5.84c.3.52 1.03.63 1.63.25.6-.37.83-1.1.53-1.62l-.5-.84c-.3-.52-1.03-.64-1.63-.26Z" fill="#3A556A"/><path d="M58.42 45.51c-.6.38-.84 1.11-.53 1.63l.49.84c.3.52 1.03.63 1.63.26.6-.38.84-1.11.54-1.63l-.5-.84c-.3-.52-1.03-.64-1.63-.26Z" fill="#3A556A"/><path d="M53.95 48.29c-.6.38-.83 1.1-.53 1.62l.5.85c.3.51 1.03.63 1.63.25.6-.38.83-1.1.53-1.63l-.5-.84c-.3-.52-1.03-.63-1.63-.25Z" fill="#3A556A"/><path d="M49.49 51.06c-.6.38-.84 1.1-.53 1.63l.49.84c.3.52 1.04.63 1.63.25.6-.38.84-1.1.54-1.62l-.5-.85c-.3-.52-1.03-.63-1.63-.25Z" fill="#3A556A"/><path d="M45.02 53.83c-.6.38-.83 1.1-.53 1.63l.5.84c.3.52 1.03.63 1.63.25.6-.38.83-1.1.53-1.62l-.5-.84c-.3-.52-1.03-.64-1.63-.26Z" fill="#3A556A"/><path d="M40.56 56.6c-.6.38-.84 1.11-.53 1.63l.5.84c.3.52 1.03.63 1.62.25.6-.37.84-1.1.54-1.62l-.5-.84c-.3-.52-1.03-.64-1.63-.26Z" fill="#3A556A"/></g></svg>