<svg width="120" height="100" viewBox="0 0 120 100" fill="none" xmlns="http://www.w3.org/2000/svg"><path d="M104 71a18 18 0 0 1-18 18H59a5 5 0 0 1-5-5V50a10 10 0 0 1 10-10h35a5 5 0 0 1 5 5v26Z" fill="#FFF1DA"/><g filter="url(#filter0_d_1_357)"><path d="m35.53 61.66-1.9-.9-11.2 16.58h12.51l1.2-.79V62.23l-.61-.57Z" fill="#407093"/><path d="m33.81 60.84-4.25-2.04h-.8l-12 17.75.72.79h5.17l11.16-16.5Z" fill="#365E7D"/><path d="M38.4 76.55H21.85c-.75 0-1.36.61-1.36 1.36v1.73c0 .75.6 1.36 1.36 1.36H38.4c.75 0 1.36-.61 1.36-1.36V77.9c0-.75-.6-1.36-1.36-1.36Z" fill="#4A80AA"/><path d="M20.77 79.64V77.9c0-.75.6-1.36 1.36-1.36h-8.77c-.75 0-1.36.61-1.36 1.36v1.73c0 .75.61 1.36 1.36 1.36h8.77c-.75 0-1.36-.61-1.36-1.36Z" fill="#407093"/><path d="M33.24 50.98a8 8 0 0 0 4.34 10.94 7.8 7.8 0 0 0 3.34-2.09v-1.74l-7.68-7.1Z" fill="#4A80AA"/><path d="M32.58 54.49c0-1.22.28-2.37.78-3.4l-2.46-2.27h-1a7.8 7.8 0 0 0 7.9 13.03 7.8 7.8 0 0 1-5.22-7.36Z" fill="#407093"/><path d="M77.81 11.92a3.16 3.16 0 0 0-4.46 0l-3.02 3.02v.38l3.76 3.92.7.16 3.02-3.01a3.16 3.16 0 0 0 0-4.47Z" fill="#FFD086"/><path d="M78.64 13.41a3.16 3.16 0 0 0-5.3-1.49l-3 3.02v.38l1.99 2.08a276.5 276.5 0 0 1 2.97-3.07c1.02-1 2.5-1.02 3.34-.92Z" fill="#FFC365"/><path d="M67.5 19.95h-.1l-34.82-3.43a1.06 1.06 0 1 1 .2-2.1l34.82 3.42a1.06 1.06 0 0 1-.1 2.11Z" fill="#365E7D"/><path d="M42.65 26.47a1.06 1.06 0 0 1-.27-2.08l24.85-6.52a1.06 1.06 0 0 1 .53 2.05l-24.85 6.51a.82.82 0 0 1-.26.04Z" fill="#407093"/><path d="M74.25 58.14c-.54 0-1-.41-1.05-.96l-3.4-34.84a1.06 1.06 0 0 1 2.1-.2l3.4 34.84a1.06 1.06 0 0 1-1.05 1.16Z" fill="#365E7D"/><path d="M64.23 48.25a1.06 1.06 0 0 1-1.02-1.33l6.6-24.95a1.06 1.06 0 0 1 2.05.55l-6.61 24.94c-.13.47-.56.79-1.02.79Z" fill="#407093"/><path d="m67.3 17.96 3.03-3.02 4.46 4.47-3.02 3.02-4.46-4.47Z" fill="#FFC365"/><path d="m69.6 20.25 2.96-3.09-2.23-2.22-3.02 3.02 2.3 2.29Z" fill="#FFA90F"/><path d="M72.45 24.15c-.27 0-.54-.1-.75-.3l-5.8-5.82a1.06 1.06 0 0 1 1.49-1.5l5.8 5.82a1.06 1.06 0 0 1-.74 1.8Z" fill="#4A80AA"/><path d="M73.13 60.04 37.76 24.36c-4.69 10.59-5.5 21.95-2 31.75 9.7 8.75 24.19 10.09 37.52 4.6l-.15-.67Z" fill="#B5DCFF"/><path d="m37.95 24.55-8.1-8.17-.82.08c-5.7 13.84-4.04 28.93 5.64 38.6.58.6 1.2 1.15 1.82 1.68-4.08-9.79-3.42-21.43 1.46-32.19Z" fill="#8BCAFF"/><path d="M76.36 57.5 40.5 21.63c-.35.05-.7.21-.96.48l-1.56 1.57c-.34.33-.5.77-.51 1.2l35.76 35.77c.53.53 1.4.53 1.93 0l1.22-1.22c.53-.53.53-1.4 0-1.93Z" fill="#DBEDFF"/><path d="m38.02 23.7 1.53-1.53a1.7 1.7 0 0 1 1-.48l-8.31-8.32a1.36 1.36 0 0 0-1.93 0l-1.22 1.22c-.53.53-.53 1.4 0 1.93l8.43 8.43c0-.45.16-.9.5-1.25Z" fill="#B5DCFF"/></g><mask id="mask0_1_357" style="mask-type:alpha" maskUnits="userSpaceOnUse" x="0" y="0" width="120" height="100"><rect width="120" height="100" fill="#D9D9D9"/></mask><g mask="url(#mask0_1_357)"/><defs><filter id="filter0_d_1_357" x="8" y="11" width="74.74" height="78" filterUnits="userSpaceOnUse" color-interpolation-filters="sRGB"><feFlood flood-opacity="0" result="BackgroundImageFix"/><feColorMatrix in="SourceAlpha" type="matrix" values="0 0 0 0 0 0 0 0 0 0 0 0 0 0 0 0 0 0 127 0" result="hardAlpha"/><feOffset dy="4"/><feGaussianBlur stdDeviation="2"/><feComposite in2="hardAlpha" operator="out"/><feColorMatrix type="matrix" values="0 0 0 0 0 0 0 0 0 0 0 0 0 0 0 0 0 0 0.25 0"/><feBlend mode="normal" in2="BackgroundImageFix" result="effect1_dropShadow_1_357"/><feBlend mode="normal" in="SourceGraphic" in2="effect1_dropShadow_1_357" result="shape"/></filter></defs></svg>