<svg width="25" height="24" viewBox="0 0 25 24" fill="none" xmlns="http://www.w3.org/2000/svg"><g clip-path="url(#clip0_201_7)"><path d="M12.5 5.85a6.14 6.14 0 1 0-.02 12.29 6.14 6.14 0 0 0 .02-12.3Zm0 10.15a4 4 0 0 1 0-8 4 4 0 0 1 0 8Zm6.4-11.84a1.44 1.44 0 1 0 0 2.87 1.44 1.44 0 0 0 0-2.87ZM24.5 12c0-1.66.01-3.3-.08-4.95-.1-1.92-.53-3.62-1.94-5.03C21.08.62 19.38.18 17.45.1 15.8-.01 14.15 0 12.5 0c-1.65 0-3.3-.02-4.95.08-1.92.09-3.62.53-5.02 1.93C1.12 3.42.68 5.13.59 7.05.5 8.71.51 10.35.51 12c0 1.65-.01 3.3.08 4.95.1 1.92.53 3.62 1.94 5.03 1.4 1.4 3.1 1.84 5.02 1.93 1.66.1 3.3.08 4.95.08 1.66 0 3.3.02 4.95-.08 1.92-.09 3.63-.53 5.03-1.93 1.41-1.4 1.84-3.11 1.94-5.03.1-1.65.08-3.3.08-4.95Zm-2.64 7.07c-.22.55-.49.96-.91 1.38-.42.42-.83.69-1.37.9-1.58.63-5.33.49-7.08.49s-5.5.14-7.08-.48a3.81 3.81 0 0 1-1.37-.9 3.84 3.84 0 0 1-.9-1.38c-.63-1.58-.49-5.33-.49-7.08s-.14-5.5.48-7.08c.22-.54.49-.95.91-1.37.42-.42.83-.69 1.37-.9 1.58-.63 5.33-.49 7.08-.49s5.5-.14 7.08.48a4.03 4.03 0 0 1 2.27 2.28c.63 1.58.5 5.33.5 7.08s.13 5.5-.5 7.07Z" fill="#E61F5A"/></g><defs><clipPath id="clip0_201_7"><rect width="24" height="24" fill="white" transform="translate(.5)"/></clipPath></defs></svg>