<svg width="25" height="24" viewBox="0 0 25 24" fill="none" xmlns="http://www.w3.org/2000/svg"><g clip-path="url(#clip0_201_5)"><path d="M23.54 0H1.46A.96.96 0 0 0 .5.96v22.08c0 .53.43.96.96.96h22.08c.53 0 .96-.43.96-.96V.96a.96.96 0 0 0-.96-.96Zm-2.77 7h-1.92c-1.5 0-1.8.72-1.8 1.77v2.31h3.6l-.47 3.62h-3.12V24h-3.74v-9.3h-3.13v-3.62h3.13V8.41c0-3.1 1.89-4.79 4.66-4.79 1.32 0 2.46.1 2.8.15V7h-.01Z" fill="#335BF5"/></g><defs><clipPath id="clip0_201_5"><rect width="24" height="24" fill="white" transform="translate(.5)"/></clipPath></defs></svg>