<svg width="25" height="18" viewBox="0 0 25 18" fill="none" xmlns="http://www.w3.org/2000/svg"><g clip-path="url(#clip0_201_11)"><path d="M23.97 2.93a3.2 3.2 0 0 0-.77-1.4A2.97 2.97 0 0 0 21.86.7C19.98.18 12.49.18 12.49.18s-7.5 0-9.37.53c-.5.14-.97.42-1.34.81a3.2 3.2 0 0 0-.77 1.41C.66 4.93.49 6.96.5 9c-.02 2.03.15 4.07.5 6.07a3.06 3.06 0 0 0 2.11 2.22c1.87.53 9.37.53 9.37.53s7.5 0 9.37-.53a3.01 3.01 0 0 0 2.11-2.22c.35-2 .52-4.04.5-6.07a33.3 33.3 0 0 0-.5-6.07Zm-13.88 9.85V5.22L16.32 9l-6.23 3.78Z" fill="#E42F08"/></g><defs><clipPath id="clip0_201_11"><rect width="24" height="17.68" fill="white" transform="translate(.5 .16)"/></clipPath></defs></svg>