<svg width="25" height="20" viewBox="0 0 25 20" fill="none" xmlns="http://www.w3.org/2000/svg"><g clip-path="url(#clip0_201_9)"><path d="M24.5 2.47c-.88.38-1.84.66-2.83.77A4.96 4.96 0 0 0 23.83.49c-.96.58-2.02.99-3.12 1.2A4.9 4.9 0 0 0 17.12.12a4.95 4.95 0 0 0-4.79 6.13A13.9 13.9 0 0 1 2.2 1.03 5 5 0 0 0 3.72 7.7a4.9 4.9 0 0 1-2.22-.63v.06a4.97 4.97 0 0 0 3.94 4.9 5.13 5.13 0 0 1-2.22.09 4.93 4.93 0 0 0 4.6 3.46 9.76 9.76 0 0 1-7.3 2.07 13.77 13.77 0 0 0 7.55 2.23c9.04 0 13.98-7.6 13.98-14.19l-.01-.65c.95-.7 1.8-1.59 2.46-2.57Z" fill="#21A6DF"/></g><defs><clipPath id="clip0_201_9"><rect width="24" height="19.76" fill="white" transform="translate(.5 .12)"/></clipPath></defs></svg>