<svg width="98" height="254" viewBox="0 0 98 254" fill="none" xmlns="http://www.w3.org/2000/svg"><path d="M8.96 14.23c7.02-8.51 24.8-21.6 39.65-5.85 14.86 15.75-5.19 45.24-17.07 58.02-5.85 3.55-18.06 9.58-20.07 5.32-2.51-5.32-4.02-16.5 16.56-26.08 13.22-5.68 41.76-11.71 50.2 9.58 3.84 9.23 4.51 30.66-23.6 42.58L19.5 113.24m0 0c-13.39.53-32.63-5.85-2.51-35.66 9.54-4.62 32.62-13.95 48.68-14.38 9.2 1.96 26.9 11.6 24.1 34.6.33 4.62-5.93 16.08-33.63 25.02-6.36 1.42-20.58 4.36-26.6 4.79l-21.59 3.2 11.55-17.57Zm0 0c8.78-2.49 29.5-6.7 42.16-3.73 15.81 3.73 22.08.53 34.63 21.3 2.18 10.64.6 32.46-23.09 34.6-23.69 2.12-38.98-1.96-43.66-4.27v-19.7m0 0c17.23 1.6 54.2.43 64.24-17.02C98.63 112 99 86.62 61.66 84.49c-9.04.36-28.3 1.5-33.13 3.2l1 37.79c17.57 1.6 54.51 9.15 61.74 26.61 3.85 10.12 5.12 31.4-20.58 35.67-9.53.35-31.11-.96-41.15-9.05m0-37.26v37.26m0-37.26c10.87 2.66 34.83 10 43.66 18.1 10.71 8.87 26.4 30.87 3.52 47.9-7.2 2.66-26.3 4.8-45.18-7.98m-2-20.76 2 20.76m-2-20.76c12.04 8.51 36.64 29.17 38.64 43.64.84 8.88-1.4 27.36-17.06 30.34-4.02.71-13.95.64-21.58-5.32l2-47.9" stroke="#84829A"/></svg>