<svg width="47" height="48" viewBox="0 0 47 48" fill="none" xmlns="http://www.w3.org/2000/svg"><rect width="47" height="48" rx="13" fill="#F15A2B"/><path d="M32.82 31.93c-.45 0-.9-.12-1.27-.37a1.71 1.71 0 0 0-1.88 0 2.36 2.36 0 0 1-2.53 0 1.71 1.71 0 0 0-1.88 0 2.36 2.36 0 0 1-2.53 0 1.71 1.71 0 0 0-1.88 0 2.2 2.2 0 0 1-1.15.37l-.02-.65c.3-.01.6-.1.85-.28a2.36 2.36 0 0 1 2.53 0 1.71 1.71 0 0 0 1.88 0 2.36 2.36 0 0 1 2.53 0 1.71 1.71 0 0 0 1.88 0 2.36 2.36 0 0 1 2.53 0 1.72 1.72 0 0 0 1.88 0 2.2 2.2 0 0 1 1.27-.37v.65c-.34 0-.67.09-.94.28-.38.25-.82.38-1.27.37Z" fill="white"/><path d="M15.18 31.93c-.45 0-.9-.12-1.27-.37a1.5 1.5 0 0 0-.94-.28v-.65c.45 0 .9.12 1.27.37.28.2.6.29.94.28.33 0 .66-.09.94-.28a2.2 2.2 0 0 1 1.26-.37c.44 0 .87.11 1.24.35l-.33.56a1.55 1.55 0 0 0-.9-.26c-.34 0-.67.09-.94.28a2.2 2.2 0 0 1-1.27.37Z" fill="white"/><path d="M32.82 29.66c-.45 0-.9-.12-1.27-.37a1.72 1.72 0 0 0-1.88 0 2.36 2.36 0 0 1-2.53 0 1.71 1.71 0 0 0-1.88 0 2.36 2.36 0 0 1-2.53 0 1.71 1.71 0 0 0-1.88 0 2.2 2.2 0 0 1-1.26.37c-.45 0-.9-.12-1.27-.37a1.5 1.5 0 0 0-.94-.28 1.6 1.6 0 0 0-.94.28 2.2 2.2 0 0 1-1.26.37c-.45 0-.9-.12-1.27-.37a1.5 1.5 0 0 0-.94-.28v-.65c.45 0 .9.12 1.27.37.27.19.6.29.94.28.33 0 .66-.09.94-.28a2.2 2.2 0 0 1 1.26-.37c.45 0 .9.12 1.27.37.27.2.6.29.94.28.33 0 .66-.09.94-.28a2.36 2.36 0 0 1 2.53 0 1.71 1.71 0 0 0 1.88 0 2.36 2.36 0 0 1 2.53 0 1.71 1.71 0 0 0 1.87 0 2.36 2.36 0 0 1 2.54 0 1.72 1.72 0 0 0 1.88 0 2.2 2.2 0 0 1 1.27-.37v.65c-.34-.01-.67.09-.94.28a2.2 2.2 0 0 1-1.27.37Z" fill="white"/><path d="M32.82 27.39c-.45 0-.9-.12-1.27-.37a1.5 1.5 0 0 0-.94-.28c-.24 0-.49.04-.7.15l-.3-.58a2.2 2.2 0 0 1 1-.22c.45 0 .9.12 1.27.37a1.72 1.72 0 0 0 1.88 0 2.2 2.2 0 0 1 1.27-.37v.65c-.34-.01-.67.09-.94.28-.38.25-.82.38-1.27.37Z" fill="white"/><path d="M28.4 27.39c-.45 0-.89-.12-1.26-.37a1.71 1.71 0 0 0-1.88 0 2.36 2.36 0 0 1-2.53 0 1.71 1.71 0 0 0-1.88 0 2.2 2.2 0 0 1-1.26.37c-.45 0-.9-.12-1.27-.37a1.5 1.5 0 0 0-.94-.28c-.33-.01-.66.09-.93.28a2.2 2.2 0 0 1-1.27.37c-.45 0-.9-.12-1.27-.37a1.5 1.5 0 0 0-.94-.28v-.65c.45 0 .9.12 1.27.37.28.19.6.29.94.28.33 0 .66-.09.94-.28a2.2 2.2 0 0 1 1.26-.37c.45 0 .9.12 1.27.37.27.19.6.29.94.28.33 0 .66-.09.94-.28a2.36 2.36 0 0 1 2.53 0 1.72 1.72 0 0 0 1.88 0 2.36 2.36 0 0 1 2.53 0 1.65 1.65 0 0 0 1.04.27l.09.65h-.2Z" fill="white"/><path d="M32.82 25.12c-.45 0-.9-.12-1.27-.37a1.72 1.72 0 0 0-1.88 0 2.36 2.36 0 0 1-2.53 0 1.71 1.71 0 0 0-1.88 0 2.36 2.36 0 0 1-2.53 0 1.71 1.71 0 0 0-1.88 0 2.2 2.2 0 0 1-1.26.37c-.45 0-.9-.12-1.27-.37a1.5 1.5 0 0 0-.94-.28 1.6 1.6 0 0 0-.94.28 2.2 2.2 0 0 1-1.26.37c-.45 0-.9-.12-1.27-.37-.27-.2-.6-.3-.94-.28v-.65c.45 0 .9.12 1.27.37.27.19.6.29.94.28.33 0 .66-.09.94-.28a2.2 2.2 0 0 1 1.26-.37c.45 0 .9.12 1.27.37.27.19.6.29.94.28.33 0 .66-.09.94-.28a2.36 2.36 0 0 1 2.53 0 1.71 1.71 0 0 0 1.88 0 2.36 2.36 0 0 1 2.53 0 1.71 1.71 0 0 0 1.87 0 2.36 2.36 0 0 1 2.54 0 1.72 1.72 0 0 0 1.88 0 2.2 2.2 0 0 1 1.27-.37v.65c-.34-.01-.67.09-.94.28a2.2 2.2 0 0 1-1.27.37Z" fill="white"/><path d="m28.2 24.84-.61-.21a3.55 3.55 0 0 0-.2-2.79l-2.22-4.36a.32.32 0 0 1 .2-.46l4.44-1.18a.57.57 0 0 0-.27-1.1l-5.38 1.28a.77.77 0 0 0-.5 1.11l1.6 2.97a.32.32 0 0 1-.13.44l-2.06 1.13-.31-.57 1.77-.98-1.44-2.68a1.42 1.42 0 0 1 .92-2.05l5.37-1.28a1.22 1.22 0 1 1 .6 2.35l-4.05 1.08 2.04 4a4.2 4.2 0 0 1 .23 3.3Z" fill="white"/><path d="m21.62 21.73-3.94 2.18.31.56 3.95-2.17-.32-.57Z" fill="white"/><path d="M31.14 22.68a2.43 2.43 0 1 1 0-4.86 2.43 2.43 0 0 1 0 4.86Zm0-4.21a1.78 1.78 0 1 0 0 3.57 1.78 1.78 0 0 0 0-3.57Z" fill="white"/></svg>