<svg width="47" height="48" viewBox="0 0 47 48" fill="none" xmlns="http://www.w3.org/2000/svg"><rect width="47" height="48" rx="13" fill="#F0BB1F"/><path d="M13.54 17.48a.55.55 0 0 1-.54-.54v-3.4c0-.3.24-.54.54-.54h3.4c.3 0 .54.24.54.54v1.19h13.04v-1.19c0-.3.25-.53.54-.54h3.4c.3 0 .53.24.54.54v3.4c0 .3-.24.54-.54.54h-1.19v13.04h1.19c.3 0 .53.25.54.54v3.4c0 .3-.24.53-.54.54h-3.4a.54.54 0 0 1-.54-.54v-1.19H17.48v1.19c0 .3-.25.53-.54.54h-3.4a.55.55 0 0 1-.54-.54v-3.4c0-.3.24-.54.54-.54h1.19V17.48h-1.19Zm20.38-1.08v-2.32H31.6v2.32h2.32ZM31.6 33.92h2.32V31.6H31.6v2.32Zm-14.12-2.86v1.14h13.04v-1.14c0-.3.25-.54.54-.54h1.14V17.48h-1.14a.54.54 0 0 1-.54-.54V15.8H17.48v1.14c0 .3-.25.54-.54.54H15.8v13.04h1.14c.3 0 .54.25.54.54Zm-3.4.54v2.32h2.32V31.6h-2.32Zm2.32-15.2v-2.32h-2.32v2.32h2.32Z" fill="white"/></svg>