<svg width="47" height="48" viewBox="0 0 47 48" fill="none" xmlns="http://www.w3.org/2000/svg"><rect width="47" height="48" rx="13" fill="#006380"/><path d="M16.5 26.13a1.5 1.5 0 1 0 0 3 1.5 1.5 0 0 0 0-3Zm0 2.25a.75.75 0 1 1 0-1.5.75.75 0 0 1 0 1.5Z" fill="white"/><path d="M31.5 26.13a1.5 1.5 0 1 0 0 3 1.5 1.5 0 0 0 0-3Zm0 2.25a.75.75 0 1 1 0-1.5.75.75 0 0 1 0 1.5Z" fill="white"/><path d="M20.63 28h6.75v.75h-6.75V28Z" fill="white"/><path d="M20.63 26.5h6.75v.75h-6.75v-.75Z" fill="white"/><path d="M22.88 20.88h2.25v.75h-2.25v-.75Z" fill="white"/><path d="M35.25 24.25v-.75a1.13 1.13 0 0 0-1.13-1.13h-1.48l-.78-2.72-.23-.92a1.12 1.12 0 0 0-1.09-.86h-3.16v-1.5a.75.75 0 0 0-.75-.75h-5.25a.75.75 0 0 0-.75.76v1.5h-3.17a1.12 1.12 0 0 0-1.1.85l-.22.92-.78 2.73h-1.48a1.13 1.13 0 0 0-1.13 1.12v.75a1.12 1.12 0 0 0 .53.95c-.34.35-.53.81-.53 1.3V31a1.12 1.12 0 0 0 .38.83v1.42a1.13 1.13 0 0 0 1.12 1.13h3a1.13 1.13 0 0 0 1.13-1.13v-1.13h11.25v1.13a1.13 1.13 0 0 0 1.12 1.13h3a1.13 1.13 0 0 0 1.13-1.13v-1.42a1.12 1.12 0 0 0 .37-.83v-4.5c0-.49-.19-.95-.53-1.3a1.12 1.12 0 0 0 .53-.95Zm-13.88-7.88h5.25v1.5h-5.25v-1.5Zm-4.27 2.54a.37.37 0 0 1 .36-.29h13.08a.38.38 0 0 1 .36.29l.12.46H16.98l.12-.46Zm-.32 1.21h14.44l1.28 4.5H21.72a2.25 2.25 0 0 0-4.44 0H15.5l1.28-4.5Zm4.17 4.5h-2.9a1.5 1.5 0 0 1 2.9 0ZM13.5 23.5a.38.38 0 0 1 .38-.38h1.27l-.43 1.5h-.85a.38.38 0 0 1-.37-.37v-.75Zm4.13 9.75a.38.38 0 0 1-.38.38h-3a.38.38 0 0 1-.38-.38v-1.13h3.76v1.13Zm16.5 0a.38.38 0 0 1-.38.38h-3a.38.38 0 0 1-.38-.38v-1.13h3.75v1.13ZM34.5 31a.38.38 0 0 1-.38.38H13.89a.38.38 0 0 1-.38-.38v-.38h21V31Zm0-1.13h-21V26.5a1.13 1.13 0 0 1 1.13-1.13h18.74a1.13 1.13 0 0 1 1.13 1.13v3.38Zm0-5.62a.38.38 0 0 1-.38.38h-.84l-.43-1.5h1.27a.38.38 0 0 1 .38.37v.75Z" fill="white"/></svg>