<svg width="107" height="35" viewBox="0 0 107 35" fill="none" xmlns="http://www.w3.org/2000/svg"><rect width="107" height="35" rx="17.5" fill="#080809"/><g clip-path="url(#clip0_108_77)"><path d="m28.5 17-10.04 9.67a1.7 1.7 0 0 1-.74-1.42V8.75c0-.56.27-1.1.74-1.42L28.51 17Z" fill="#2196F3"/><path d="M32.02 13.62 28.51 17 18.46 7.33l.12-.08c.53-.32 1.2-.33 1.74-.03l11.7 6.4Z" fill="#4CAF50"/><path d="M36.28 17c0 .64-.34 1.24-.9 1.55l-3.36 1.83L28.51 17l3.51-3.38 3.35 1.84c.57.3.92.9.91 1.54Z" fill="#F0BB1F"/><path d="m32.02 20.38-11.7 6.4a1.74 1.74 0 0 1-1.86-.1L28.51 17l3.51 3.38Z" fill="#F15A2B"/></g><path d="M48.02 11.88h-2.8V13h1.5c-.2.54-.7.86-1.44.86-1.09 0-1.76-.7-1.76-1.64 0-.99.7-1.68 1.65-1.68.63 0 1.13.28 1.37.65l1.08-.62a2.86 2.86 0 0 0-2.44-1.28 2.9 2.9 0 1 0 .09 5.82c1.56 0 2.75-1.04 2.75-2.75v-.48Z" fill="white"/><path d="M49.63 13.77v-1h2v-1.21h-2v-.93h2.2V9.4h-3.48V15h3.52v-1.23h-2.24Z" fill="white"/><path d="M55.95 9.4h-4.16v1.23h1.44V15h1.28v-4.37h1.44V9.4Z" fill="white"/><path d="M57.7 9.4V15H59V9.4h-1.3Z" fill="white"/><path d="M63.31 9.4h-4.16v1.23h1.44V15h1.28v-4.37h1.44V9.4Z" fill="white"/><path d="M67.74 15.11a2.88 2.88 0 0 0 2.91-2.91c0-1.65-1.3-2.91-2.9-2.91a2.89 2.89 0 0 0-2.92 2.91c0 1.65 1.3 2.91 2.91 2.91Zm0-1.25a1.6 1.6 0 0 1-1.63-1.66c0-1 .72-1.66 1.63-1.66.91 0 1.63.66 1.63 1.66 0 1-.72 1.66-1.63 1.66Z" fill="white"/><path d="M74.1 9.4v3.04L71.94 9.4h-.96V15h1.28v-3.04L74.42 15h.96V9.4H74.1Z" fill="white"/><path d="M48.02 21.4v.2c0 .7-.24 1.3-.74 1.78-.5.47-1.15.7-1.96.7a2.86 2.86 0 0 1-2.94-2.88c0-.81.27-1.5.82-2.05a2.8 2.8 0 0 1 2.09-.84 2.78 2.78 0 0 1 2.4 1.35l-.37.23a2.32 2.32 0 0 0-2.03-1.17 2.42 2.42 0 0 0-2.49 2.48 2.43 2.43 0 0 0 2.52 2.48c.66 0 1.19-.18 1.6-.54.4-.35.62-.8.67-1.35h-2.37v-.4h2.8Z" fill="white"/><path d="M53.7 23.25c-.56.56-1.24.84-2.05.84-.8 0-1.48-.28-2.04-.84a2.8 2.8 0 0 1-.84-2.05c0-.8.28-1.48.84-2.04a2.77 2.77 0 0 1 2.04-.85c.81 0 1.5.28 2.05.85.56.56.84 1.24.84 2.04s-.28 1.48-.84 2.05Zm-3.8-.29a2.4 2.4 0 0 0 1.75.72c.7 0 1.27-.24 1.75-.72.48-.49.72-1.07.72-1.76s-.24-1.27-.72-1.75a2.35 2.35 0 0 0-1.75-.73c-.68 0-1.27.24-1.75.73a2.4 2.4 0 0 0-.7 1.75c0 .69.23 1.27.7 1.76Z" fill="white"/><path d="M60.23 23.25c-.56.56-1.24.84-2.04.84s-1.5-.28-2.05-.84a2.8 2.8 0 0 1-.84-2.05c0-.8.28-1.48.84-2.04a2.77 2.77 0 0 1 2.05-.85c.8 0 1.48.28 2.04.85.56.56.84 1.24.84 2.04s-.28 1.48-.84 2.05Zm-3.8-.29a2.4 2.4 0 0 0 1.76.72c.68 0 1.27-.24 1.74-.72.48-.49.72-1.07.72-1.76s-.24-1.27-.72-1.75a2.35 2.35 0 0 0-1.74-.73c-.7 0-1.28.24-1.76.73a2.4 2.4 0 0 0-.7 1.75c0 .69.23 1.27.7 1.76Z" fill="white"/><path d="M67.48 21.4v.2c0 .7-.25 1.3-.75 1.78-.5.47-1.15.7-1.96.7a2.86 2.86 0 0 1-2.94-2.88c0-.81.27-1.5.82-2.05a2.8 2.8 0 0 1 2.1-.84 2.78 2.78 0 0 1 2.4 1.35l-.38.23a2.32 2.32 0 0 0-2.03-1.17 2.42 2.42 0 0 0-2.49 2.48 2.43 2.43 0 0 0 2.52 2.48c.66 0 1.19-.18 1.6-.54.4-.35.63-.8.68-1.35h-2.38v-.4h2.8Z" fill="white"/><path d="M68.96 23.6h2.64v.4h-3.06v-5.6h.42v5.2Z" fill="white"/><path d="M72.9 23.6h2.8v.4h-3.2v-5.6h3.18v.4H72.9v2.18h2.56v.4H72.9v2.22Z" fill="white"/><path d="M80.79 18.4a1.7 1.7 0 0 1 1.74 1.74 1.68 1.68 0 0 1-1.74 1.72H79.3V24h-.43v-5.6h1.9Zm0 3.06c.38 0 .7-.12.94-.37.25-.25.38-.57.38-.95 0-.4-.13-.71-.38-.96a1.26 1.26 0 0 0-.94-.38H79.3v2.66h1.48Z" fill="white"/><path d="M84 23.6h2.64v.4h-3.06v-5.6H84v5.2Z" fill="white"/><path d="m91.45 24-.55-1.42h-2.8L87.55 24h-.45l2.18-5.6h.45L91.9 24h-.45Zm-3.2-1.82h2.5l-1.25-3.26-1.24 3.26Z" fill="white"/><path d="m95.88 18.4-2.04 3.3V24h-.42v-2.3l-2.04-3.3h.48l1.77 2.89 1.77-2.89h.48Z" fill="white"/><defs><clipPath id="clip0_108_77"><rect width="20" height="20" fill="white" transform="translate(17 7)"/></clipPath></defs></svg>