<svg width="100" height="35" viewBox="0 0 100 35" fill="none" xmlns="http://www.w3.org/2000/svg"><rect width="100" height="35" rx="17.5" fill="#080809"/><path d="M21.79 24c-2.38-.01-4.35-4.87-4.35-7.35 0-4.04 3.03-4.93 4.2-4.93.53 0 1.09.2 1.59.39.34.13.7.26.9.26.12 0 .4-.11.65-.21a5.2 5.2 0 0 1 1.96-.47c.58 0 2.32.12 3.36 1.7l.25.36-.36.27c-.5.38-1.42 1.07-1.42 2.44 0 1.63 1.04 2.25 1.54 2.55.22.14.45.27.45.57 0 .2-1.56 4.4-3.82 4.4-.56 0-.95-.17-1.3-.32a2.62 2.62 0 0 0-1.15-.27c-.25 0-.57.11-.9.24-.47.17-1 .37-1.59.37h-.01Z" fill="white"/><path d="M26.98 8c.06 2.13-1.46 3.6-2.98 3.51C23.75 9.81 25.52 8 26.98 8Z" fill="white"/><path d="M39.03 13h1.05l-1.43-4.2h-1.22L36 13h1.05l.21-.66h1.56l.21.66Zm-1.48-1.56.49-1.54.5 1.54h-1Z" fill="white"/><path d="m42.2 10-.62 1.9-.62-1.9h-1l1.11 3h1.02l1.11-3h-1Z" fill="white"/><path d="M45.6 10v.28c-.2-.23-.5-.36-.9-.36-.79 0-1.44.69-1.44 1.58 0 .9.65 1.58 1.44 1.58.4 0 .7-.13.9-.36V13h.9v-3h-.9Zm-.72 2.23c-.42 0-.72-.28-.72-.73 0-.45.3-.73.72-.73.41 0 .71.28.71.73 0 .45-.3.73-.71.73Z" fill="white"/><path d="M47.15 13h.9V8.62h-.9V13Z" fill="white"/><path d="M49.16 9.74c.3 0 .54-.25.54-.54 0-.3-.25-.54-.54-.54-.3 0-.54.24-.54.54 0 .29.25.54.54.54ZM48.71 13h.9v-3h-.9v3Z" fill="white"/><path d="M52.06 9.92c-.4 0-.7.13-.9.36V8.8h-.89V13h.9v-.28c.2.23.5.36.9.36.78 0 1.43-.69 1.43-1.58 0-.9-.65-1.58-1.44-1.58Zm-.18 2.31c-.41 0-.71-.28-.71-.73 0-.45.3-.73.71-.73.42 0 .72.28.72.73 0 .45-.3.73-.72.73Z" fill="white"/><path d="M54 13h.9V8.62H54V13Z" fill="white"/><path d="M56.37 11.86h2.13c.02-.11.04-.23.04-.36 0-.9-.65-1.58-1.53-1.58-.95 0-1.6.69-1.6 1.58 0 .9.64 1.58 1.67 1.58.57 0 1.01-.2 1.3-.61l-.71-.42a.78.78 0 0 1-.58.23c-.33 0-.6-.1-.72-.42Zm-.02-.67c.09-.3.31-.48.66-.48.27 0 .54.13.63.48h-1.29Z" fill="white"/><path d="M61.99 13.08c.88 0 1.59-.69 1.59-1.58 0-.9-.71-1.58-1.6-1.58-.88 0-1.58.69-1.58 1.58 0 .9.7 1.58 1.59 1.58Zm0-.87c-.4 0-.7-.28-.7-.71 0-.43.3-.7.7-.7.39 0 .69.27.69.7 0 .43-.3.7-.7.7Z" fill="white"/><path d="M65.84 9.92c-.4 0-.7.14-.85.36V10h-.9v3h.9v-1.64c0-.42.22-.62.55-.62.3 0 .53.18.53.55V13h.9v-1.84c0-.81-.52-1.24-1.13-1.24Z" fill="white"/><path d="M70.84 10.86V10h-.62v-.84l-.9.27V10h-.48v.86h.48v1.07c0 .84.35 1.19 1.52 1.07v-.82c-.4.03-.62 0-.62-.25v-1.07h.62Z" fill="white"/><path d="M73.11 9.92c-.4 0-.7.14-.86.36V8.8h-.9V13h.9v-1.64c0-.42.23-.62.56-.62.29 0 .52.18.52.55V13h.9v-1.84c0-.81-.51-1.24-1.12-1.24Z" fill="white"/><path d="M75.65 11.86h2.13c.03-.11.04-.23.04-.36 0-.9-.65-1.58-1.52-1.58-.95 0-1.6.69-1.6 1.58 0 .9.64 1.58 1.66 1.58.57 0 1.02-.2 1.3-.61l-.71-.42a.78.78 0 0 1-.58.23c-.33 0-.6-.1-.72-.42Zm-.01-.67c.08-.3.3-.48.65-.48.27 0 .54.13.64.48h-1.3Z" fill="white"/><path d="M41.05 24h1.75l-2.38-7h-2.04L36 24h1.75l.35-1.1h2.6l.35 1.1Zm-2.47-2.6.82-2.57.82 2.57h-1.64Z" fill="white"/><path d="M46.34 18.86c-.67 0-1.16.23-1.5.61V19h-1.5v7h1.5v-2.47c.34.38.83.61 1.5.61 1.3 0 2.39-1.15 2.39-2.64 0-1.49-1.08-2.64-2.4-2.64Zm-.3 3.86c-.7 0-1.2-.47-1.2-1.22s.5-1.22 1.2-1.22c.69 0 1.19.47 1.19 1.22s-.5 1.22-1.2 1.22Z" fill="white"/><path d="M52.57 18.86c-.67 0-1.16.23-1.5.61V19h-1.5v7h1.5v-2.47c.34.38.83.61 1.5.61 1.3 0 2.39-1.15 2.39-2.64 0-1.49-1.08-2.64-2.4-2.64Zm-.3 3.86c-.7 0-1.2-.47-1.2-1.22s.5-1.22 1.2-1.22c.69 0 1.19.47 1.19 1.22s-.5 1.22-1.2 1.22Z" fill="white"/><path d="M55.8 24h1.5v-7.3h-1.5V24Z" fill="white"/><path d="M59.75 22.1h3.55c.04-.19.06-.39.06-.6 0-1.51-1.08-2.64-2.54-2.64a2.56 2.56 0 0 0-2.66 2.64c0 1.49 1.06 2.64 2.77 2.64.95 0 1.69-.35 2.18-1.03l-1.2-.69c-.2.22-.55.38-.96.38-.55 0-1.01-.18-1.2-.7Zm-.03-1.12c.14-.51.52-.79 1.09-.79.45 0 .9.21 1.06.79h-2.15Z" fill="white"/><path d="M69.2 24.14c1.53 0 2.6-.8 2.6-2.15 0-1.48-1.18-1.85-2.24-2.17-1.1-.33-1.26-.55-1.26-.87 0-.28.25-.53.75-.53.64 0 .97.31 1.2.81l1.36-.79a2.72 2.72 0 0 0-2.56-1.58c-1.21 0-2.35.78-2.35 2.13 0 1.34 1.02 1.84 2.06 2.13 1.05.29 1.45.46 1.45.89 0 .27-.2.57-.95.57-.8 0-1.22-.39-1.47-.97l-1.38.8c.39 1.03 1.33 1.73 2.8 1.73Z" fill="white"/><path d="M75.34 20.44V19H74.3v-1.4l-1.5.45V19H72v1.44h.8v1.77c0 1.4.57 1.99 2.53 1.79v-1.36c-.66.04-1.03 0-1.03-.43v-1.77h1.03Z" fill="white"/><path d="M78.5 24.14a2.62 2.62 0 0 0 2.64-2.64 2.62 2.62 0 0 0-2.65-2.64 2.62 2.62 0 0 0-2.65 2.64 2.62 2.62 0 0 0 2.65 2.64Zm0-1.46c-.66 0-1.16-.47-1.16-1.18s.5-1.18 1.15-1.18c.65 0 1.15.47 1.15 1.18s-.5 1.18-1.15 1.18Z" fill="white"/><path d="M83.49 19.89V19h-1.5v5h1.5v-2.26c0-.99.88-1.24 1.5-1.14v-1.7c-.63 0-1.3.32-1.5.99Z" fill="white"/><path d="M86.88 22.1h3.55c.04-.19.06-.39.06-.6 0-1.51-1.08-2.64-2.54-2.64a2.56 2.56 0 0 0-2.66 2.64c0 1.49 1.06 2.64 2.77 2.64.95 0 1.7-.35 2.18-1.03l-1.2-.69c-.2.22-.55.38-.96.38-.55 0-1-.18-1.2-.7Zm-.03-1.12c.14-.51.52-.79 1.1-.79.44 0 .9.21 1.05.79h-2.15Z" fill="white"/></svg>