<svg width="70" height="70" viewBox="0 0 70 70" fill="none" xmlns="http://www.w3.org/2000/svg"><circle cx="35" cy="35" r="35" fill="url(#paint0_linear_1_489)"/><path d="M52.61 23.99c.7 1.2.6 2.62-.24 3.72l-18.48 24.1c-.76 1-2.01 1.5-3.3 1.26a3.34 3.34 0 0 1-2.6-2.39l-2.73-9.72-.28-1.02-.74-.75-7.05-7.23a3.34 3.34 0 0 1-.77-3.44 3.34 3.34 0 0 1 2.73-2.23l30.12-3.95a3.3 3.3 0 0 1 3.34 1.65Z" fill="white"/><path d="M25.26 40.96 28 50.68a3.34 3.34 0 0 0 2.6 2.4 3.34 3.34 0 0 0 3.3-1.26l18.47-24.1a3.3 3.3 0 0 0 .24-3.73L24.98 39.94l.28 1.02Z" fill="white"/><path d="M36.22 33.45c.28.49.12 1.11-.37 1.4l-10.59 6.1-.28-1-.73-.76 10.58-6.11a1.02 1.02 0 0 1 1.4.37Z" fill="url(#paint1_linear_1_489)"/><path d="m25.26 40.96 10.59-6.12c.49-.28.65-.9.37-1.39l-11.24 6.5.28 1Z" fill="url(#paint2_linear_1_489)"/><defs><linearGradient id="paint0_linear_1_489" x1="49.65" y1="1.96" x2="19.56" y2="77.76" gradientUnits="userSpaceOnUse"><stop stop-color="#747DEF"/><stop offset="1" stop-color="#5E3BE1"/></linearGradient><linearGradient id="paint1_linear_1_489" x1="32.41" y1="34.54" x2="33.55" y2="36.83" gradientUnits="userSpaceOnUse"><stop stop-color="#747DEF"/><stop offset="1" stop-color="#5E3BE1"/></linearGradient><linearGradient id="paint2_linear_1_489" x1="32.9" y1="35.4" x2="33.51" y2="36.53" gradientUnits="userSpaceOnUse"><stop stop-color="#747DEF"/><stop offset="1" stop-color="#5E3BE1"/></linearGradient></defs></svg>